<svg width="14" height="14" viewBox="0 0 14 14" fill="none" xmlns="http://www.w3.org/2000/svg">
<path fill-rule="evenodd" clip-rule="evenodd" d="M13.1068 2.30709C13.4973 1.91657 13.4973 1.2834 13.1068 0.89287C12.7162 0.502344 12.0831 0.502344 11.6926 0.89287L6.99947 5.58601L2.30671 0.893187C1.91619 0.50266 1.28302 0.50266 0.892502 0.893186C0.50198 1.28371 0.50198 1.91688 0.892502 2.30741L5.58527 7.00023L0.892501 11.693C0.501979 12.0836 0.501979 12.7167 0.892501 13.1073C1.28302 13.4978 1.91618 13.4978 2.30671 13.1073L6.99947 8.41445L11.6926 13.1076C12.0831 13.4981 12.7162 13.4981 13.1068 13.1076C13.4973 12.7171 13.4973 12.0839 13.1068 11.6934L8.41368 7.00023L13.1068 2.30709Z" fill="white"/>
</svg>
