<svg width="60" height="60" viewBox="0 0 60 60" fill="none" xmlns="http://www.w3.org/2000/svg">
<path d="M42.043 22.957L30 31.8203L17.957 22.957M16.5361 20.023C16.1287 20.023 15.738 20.1849 15.4499 20.473C15.1618 20.761 15 21.1517 15 21.5591V38.9247C15 39.3321 15.1618 39.7228 15.4499 40.0109C15.738 40.299 16.1287 40.4608 16.5361 40.4608H43.4639C43.8713 40.4608 44.262 40.299 44.5501 40.0109C44.8382 39.7228 45 39.3321 45 38.9247V21.5361C45 21.1287 44.8382 20.738 44.5501 20.4499C44.262 20.1618 43.8713 20 43.4639 20H16.5361V20.023Z" stroke="#2459BF" stroke-width="2" stroke-linecap="round" stroke-linejoin="round"/>
<rect x="40" y="15" width="10" height="10" rx="5" fill="#EC0F0F"/>
<rect x="0.5" y="0.5" width="59" height="59" rx="9.5" stroke="#2459BF"/>
</svg>
