<svg width="23" height="17" viewBox="0 0 23 17" fill="none" xmlns="http://www.w3.org/2000/svg">
<path d="M21.6562 3.03125V13.9688C21.6562 14.3832 21.4916 14.7806 21.1986 15.0736C20.9056 15.3666 20.5082 15.5312 20.0938 15.5312H2.90625C2.49185 15.5312 2.09442 15.3666 1.8014 15.0736C1.50837 14.7806 1.34375 14.3832 1.34375 13.9688V3.03125M21.6562 3.03125C21.6562 2.61685 21.4916 2.21942 21.1986 1.9264C20.9056 1.63337 20.5082 1.46875 20.0938 1.46875H2.90625C2.49185 1.46875 2.09442 1.63337 1.8014 1.9264C1.50837 2.21942 1.34375 2.61685 1.34375 3.03125M21.6562 3.03125L12.3891 9.44687C12.1278 9.62764 11.8177 9.72447 11.5 9.72447C11.1823 9.72447 10.8722 9.62764 10.6109 9.44687L1.34375 3.03125" stroke="white" stroke-width="2" stroke-linecap="round" stroke-linejoin="round"/>
</svg>
