<svg width="42" height="38" viewBox="0 0 42 38" fill="none" xmlns="http://www.w3.org/2000/svg">
<path d="M21.0003 30.4583C23.6045 30.4583 25.8184 29.5465 27.642 27.7229C29.4656 25.8993 30.3767 23.6861 30.3753 21.0833C30.3753 18.4792 29.4635 16.2653 27.6399 14.4417C25.8163 12.6181 23.6031 11.7069 21.0003 11.7083C18.3962 11.7083 16.1823 12.6201 14.3587 14.4437C12.5351 16.2674 11.6239 18.4806 11.6253 21.0833C11.6253 23.6875 12.5371 25.9014 14.3607 27.725C16.1844 29.5486 18.3976 30.4597 21.0003 30.4583ZM21.0003 26.2917C19.542 26.2917 18.3094 25.7882 17.3024 24.7812C16.2955 23.7743 15.792 22.5417 15.792 21.0833C15.792 19.625 16.2955 18.3924 17.3024 17.3854C18.3094 16.3785 19.542 15.875 21.0003 15.875C22.4587 15.875 23.6913 16.3785 24.6982 17.3854C25.7052 18.3924 26.2087 19.625 26.2087 21.0833C26.2087 22.5417 25.7052 23.7743 24.6982 24.7812C23.6913 25.7882 22.4587 26.2917 21.0003 26.2917ZM4.33366 37.75C3.18783 37.75 2.20658 37.3417 1.38991 36.525C0.573246 35.7083 0.165607 34.7278 0.166996 33.5833V8.58333C0.166996 7.4375 0.575329 6.45625 1.392 5.63958C2.20866 4.82292 3.18922 4.41528 4.33366 4.41667H10.8962L14.7503 0.25H27.2503L31.1045 4.41667H37.667C38.8128 4.41667 39.7941 4.825 40.6108 5.64167C41.4274 6.45833 41.8351 7.43889 41.8337 8.58333V33.5833C41.8337 34.7292 41.4253 35.7104 40.6087 36.5271C39.792 37.3438 38.8114 37.7514 37.667 37.75H4.33366ZM37.667 33.5833V8.58333H29.2295L25.4274 4.41667H16.5732L12.7712 8.58333H4.33366V33.5833H37.667Z" fill="white"/>
</svg>
